<svg xmlns="http://www.w3.org/2000/svg" xmlns:xlink="http://www.w3.org/1999/xlink" version="1.1" x="0px" y="0px" viewBox="0 0 36 45" style="enable-background:new 0 0 36 36;" xml:space="preserve"><path d="M32,15.5h-0.5V9c0-0.28-0.22-0.5-0.5-0.5H5C4.72,8.5,4.5,8.72,4.5,9v6.5H4c-0.83,0-1.5,0.67-1.5,1.5v8  c0,0.28,0.22,0.5,0.5,0.5h1.5V27c0,0.28,0.22,0.5,0.5,0.5s0.5-0.22,0.5-0.5v-1.5h25V27c0,0.28,0.22,0.5,0.5,0.5s0.5-0.22,0.5-0.5  v-1.5H33c0.28,0,0.5-0.22,0.5-0.5v-8C33.5,16.17,32.83,15.5,32,15.5z M5.5,9.5h25v6h-3V13c0-0.28-0.22-0.5-0.5-0.5h-6  c-0.28,0-0.5,0.22-0.5,0.5v2.5h-5V13c0-0.28-0.22-0.5-0.5-0.5H9c-0.28,0-0.5,0.22-0.5,0.5v2.5h-3V9.5z M26.5,13.5v2h-5v-2H26.5z   M14.5,13.5v2h-5v-2H14.5z M32.5,24.5h-29V17c0-0.28,0.22-0.5,0.5-0.5h1h4h6h6h6h4h1c0.28,0,0.5,0.22,0.5,0.5V24.5z"/></svg>
