<svg xmlns="http://www.w3.org/2000/svg" viewBox="0 0 64 80" x="0px" y="0px"><g><path d="M55,61V3a1,1,0,0,0-1-1H10A1,1,0,0,0,9,3V61a1,1,0,0,0,1,1H54A1,1,0,0,0,55,61ZM11,4H53V6H11ZM26.606,18.447A2.794,2.794,0,0,0,29.118,20h5.764a2.794,2.794,0,0,0,2.512-1.553A.805.805,0,0,1,38.118,18H49v8H15V18H25.882A.805.805,0,0,1,26.606,18.447ZM25.882,46H15V38H25.882a.805.805,0,0,1,.724.447A2.794,2.794,0,0,0,29.118,40h5.764a2.794,2.794,0,0,0,2.512-1.553A.805.805,0,0,1,38.118,38H49v8H25.882ZM15,28H25.882a.805.805,0,0,1,.724.447A2.794,2.794,0,0,0,29.118,30h5.764a2.794,2.794,0,0,0,2.512-1.553A.805.805,0,0,1,38.118,28H49v8H15Zm0,20H25.882a.805.805,0,0,1,.724.447A2.794,2.794,0,0,0,29.118,50h5.764a2.794,2.794,0,0,0,2.512-1.553A.805.805,0,0,1,38.118,48H49v8H15ZM49,16H15V8H25.882a.805.805,0,0,1,.724.447A2.794,2.794,0,0,0,29.118,10h5.764a2.794,2.794,0,0,0,2.512-1.553A.805.805,0,0,1,38.118,8H49ZM11,8h2V60H11Zm4,50H49v2H15Zm38,2H51V8h2Z"/></g></svg>
