<svg xmlns="http://www.w3.org/2000/svg" xmlns:xlink="http://www.w3.org/1999/xlink" version="1.1" x="0px" y="0px" viewBox="0 0 100 125" style="enable-background:new 0 0 100 100;" xml:space="preserve"><path d="M89,23H57c-22.55,0-40.99,17.86-41.95,40.17C9.36,64.11,5,69.05,5,75c0,1.1,0.9,2,2,2h77c3.86,0,7-3.14,7-7  c0-3.77-3-6.85-6.74-6.99C85.15,59.56,88.28,57,92,57h1c1.1,0,2-0.9,2-2V29C95,25.69,92.31,23,89,23z M87,70c0,1.65-1.35,3-3,3H9.25  c0.89-3.45,4.03-6,7.75-6h65h2C85.65,67,87,68.35,87,70z M91,53.04c-5.48,0.46-9.93,4.61-10.83,9.96H19.05  C20.1,42.97,36.72,27,57,27h32c1.1,0,2,0.9,2,2V53.04z M83,33H56c-6.62,0-12,5.38-12,12c0,1.1,0.9,2,2,2h37c1.1,0,2-0.9,2-2V35  C85,33.9,84.1,33,83,33z M81,43H48.25c0.89-3.45,4.03-6,7.75-6h25V43z M32.41,53.59C32.79,53.96,33,54.47,33,55  s-0.21,1.04-0.59,1.41C32.03,56.79,31.53,57,31,57c-0.53,0-1.04-0.21-1.41-0.59C29.21,56.04,29,55.54,29,55  c0-0.53,0.21-1.04,0.59-1.41c0.09-0.1,0.19-0.18,0.3-0.25c0.11-0.07,0.22-0.14,0.34-0.19c0.13-0.05,0.25-0.09,0.38-0.11  c0.26-0.05,0.52-0.05,0.78,0c0.13,0.02,0.25,0.06,0.38,0.11c0.12,0.05,0.23,0.12,0.34,0.19S32.32,53.49,32.41,53.59z M42.41,53.59  C42.79,53.96,43,54.47,43,55c0,0.54-0.21,1.04-0.59,1.41C42.04,56.79,41.53,57,41,57c-0.53,0-1.03-0.21-1.41-0.59  C39.21,56.04,39,55.53,39,55s0.21-1.04,0.59-1.41c0.46-0.47,1.15-0.68,1.8-0.55c0.13,0.02,0.25,0.06,0.38,0.11  c0.12,0.05,0.23,0.12,0.34,0.19S42.32,53.49,42.41,53.59z M52.41,53.59C52.79,53.96,53,54.47,53,55s-0.21,1.04-0.59,1.41  C52.03,56.79,51.53,57,51,57s-1.04-0.21-1.42-0.59C49.21,56.04,49,55.53,49,55s0.21-1.04,0.58-1.41c0.1-0.1,0.2-0.18,0.31-0.25  c0.11-0.07,0.22-0.14,0.34-0.19c0.13-0.05,0.25-0.09,0.38-0.11C51.26,52.91,51.95,53.12,52.41,53.59z"/></svg>
