<svg xmlns="http://www.w3.org/2000/svg" xmlns:xlink="http://www.w3.org/1999/xlink" version="1.1" x="0px" y="0px" viewBox="0 0 100 125" style="enable-background:new 0 0 100 100;" xml:space="preserve"><g><path d="M13.6,82.1H8c-0.6,0-1,0.4-1,1s0.4,1,1,1h5.6c0.6,0,1-0.4,1-1S14.1,82.1,13.6,82.1z"/><path d="M92.4,37.1L53.2,16c-0.3-0.2-0.7-0.2-1,0L13.8,37.2c-0.4,0.2-0.6,0.7-0.5,1.1s0.5,0.8,1,0.8h37.8v43.1h-5.6v-6.9v-5.1   c0-0.6-0.4-1-1-1H32V54.3c0-0.6-0.4-1-1-1h-5.1c-0.6,0-1,0.4-1,1v27.8h-7.3c-0.6,0-1,0.4-1,1s0.4,1,1,1h71.1c0.6,0,1-0.4,1-1   s-0.4-1-1-1h-7.3V54.3c0-0.6-0.4-1-1-1h-5.1c-0.6,0-1,0.4-1,1v14.8H60.8c-0.6,0-1,0.4-1,1v5.1v6.9h-5.6V39H92c0.5,0,0.9-0.3,1-0.8   S92.9,37.4,92.4,37.1z M30,55.3v14.8c0,0.6,0.4,1,1,1h13.5v3.1H26.9V55.3H30z M26.9,76.2h17.6v5.9H26.9V76.2z M75.3,71.1   c0.6,0,1-0.4,1-1V55.3h3.1v18.9H61.8v-3.1H75.3z M61.8,76.2h17.6v5.9H61.8V76.2z M18.2,37l34.5-19L88,37H18.2z"/></g></svg>
