<svg xmlns="http://www.w3.org/2000/svg" viewBox="0 0 64 80" x="0px" y="0px"><g><path d="M59,11H5a3,3,0,0,0-3,3V50a3,3,0,0,0,3,3H59a3,3,0,0,0,3-3V14A3,3,0,0,0,59,11Zm1,39a1,1,0,0,1-1,1H5a1,1,0,0,1-1-1V14a1,1,0,0,1,1-1H59a1,1,0,0,1,1,1Z"/><path d="M57,23H7a1,1,0,0,0-1,1V48a1,1,0,0,0,1,1H57a1,1,0,0,0,1-1V24A1,1,0,0,0,57,23ZM56,47H8V25H56Z"/><path d="M40,21H56a1,1,0,0,0,1-1V16a1,1,0,0,0-1-1H40a1,1,0,0,0-1,1v4A1,1,0,0,0,40,21Zm1-4H55v2H41Z"/><path d="M29,21a3,3,0,1,0-3-3A3,3,0,0,0,29,21Zm0-4a1,1,0,1,1-1,1A1,1,0,0,1,29,17Z"/><path d="M19,21a3,3,0,1,0-3-3A3,3,0,0,0,19,21Zm0-4a1,1,0,1,1-1,1A1,1,0,0,1,19,17Z"/><path d="M9,21a3,3,0,1,0-3-3A3,3,0,0,0,9,21Zm0-4a1,1,0,1,1-1,1A1,1,0,0,1,9,17Z"/><path d="M11.05,37.121a1,1,0,0,0,.707-.293l8.485-8.485a1,1,0,0,0-1.414-1.414l-8.485,8.485a1,1,0,0,0,.707,1.707Z"/><path d="M11.051,41.778a1,1,0,0,0,1.414,0L25.192,29.05a1,1,0,0,0-1.414-1.414L11.051,40.364A1,1,0,0,0,11.051,41.778Z"/></g></svg>
