<svg xmlns="http://www.w3.org/2000/svg" xmlns:xlink="http://www.w3.org/1999/xlink" version="1.1" x="0px" y="0px" viewBox="0 0 100 125" enable-background="new 0 0 100 100" xml:space="preserve"><g><path d="M16.718,79.504h24v-64.99h-24V79.504z M18.718,16.514h20v29.991h-5v2h5v28.999h-20V16.514z"/><rect x="18.806" y="29.934" transform="matrix(0.7071 -0.7071 0.7071 0.7071 -14.4525 26.9746)" width="13.061" height="2"/><rect x="32.249" y="20.922" transform="matrix(0.7071 0.7071 -0.7071 0.7071 26.0164 -16.7682)" width="2" height="4.197"/><rect x="25.656" y="31.106" transform="matrix(0.7071 -0.7071 0.7071 0.7071 -13.2818 32.1481)" width="13.015" height="2"/><path d="M87.656,37.991l0.025-1.517c0.018-1.086,0.916-1.97,2.037-1.97h1v-6.998h-8V10.504h-71v73h-6v2h60v0.145l3.992,3.848   h20.314l4.256-3.889L87.656,37.991z M65.719,67.73v9.773h-20V48.505h5.034v-2h-5.034V16.514h30v10.992h-9.037l0.043,6.999   l3.943-0.009l-2.098,3.635c-0.406,0.705-0.254,1.6,0.365,2.126c0.314,0.27,0.705,0.405,1.096,0.405   c0.377,0,0.754-0.126,1.064-0.378l4.404-3.579c0.09,0.277,0.152,0.56,0.152,0.839v1.997h0.066l-0.002,10.512   c0,2.857-1.309,5.47-3.783,7.558l-2.455,2.07C67.02,61.758,65.719,64.541,65.719,67.73z M72.982,34.491h0.078   c0.447,0,0.908,0.214,1.316,0.55l-3.227,2.622L72.982,34.491z M72.717,32.492l-4.004,0.01l-0.02-2.995h4.023V32.492z    M77.719,39.542h8.135l0.689,4.964h-8.824V39.542z M88.719,32.624c-1.715,0.431-3.006,1.979-3.037,3.817l-0.018,1.065l-8.014,0.016   c-0.01-1.755-1.219-3.778-2.934-4.624v-3.392h14.002V32.624z M13.719,83.504v-71h67v15.002h-3V14.514h-34v64.99h22v4H13.719z    M89.248,87.496h-18.73l-2.799-2.697V67.73c0-2.619,1.025-4.813,3.051-6.52l2.453-2.07c2.941-2.48,4.494-5.623,4.494-9.087v-3.548   h9.105l5.332,38.334L89.248,87.496z"/><rect x="69.223" y="83.539" width="21.141" height="2"/></g></svg>
